<mxfile host="app.diagrams.net" agent="Mozilla/5.0 (Windows NT 10.0; Win64; x64) AppleWebKit/537.36 (KHTML, like Gecko) Chrome/127.0.0.0 Safari/537.36 Edg/127.0.0.0" version="24.7.7">
  <diagram name="Page-1" id="MsdKaxGSer4HQnPICESm">
    <mxGraphModel dx="1040" dy="599" grid="1" gridSize="10" guides="1" tooltips="1" connect="1" arrows="1" fold="1" page="1" pageScale="1" pageWidth="850" pageHeight="1100" math="0" shadow="0">
      <root>
        <mxCell id="0" />
        <mxCell id="1" parent="0" />
        <mxCell id="ftUarqKsqONOGxU_o6YQ-1" value="" style="rounded=0;whiteSpace=wrap;html=1;" vertex="1" parent="1">
          <mxGeometry x="40" y="71.53999999999999" width="560" height="280" as="geometry" />
        </mxCell>
        <mxCell id="ftUarqKsqONOGxU_o6YQ-2" value="" style="endArrow=none;html=1;rounded=0;entryX=0.786;entryY=0.007;entryDx=0;entryDy=0;entryPerimeter=0;exitX=0.786;exitY=1.018;exitDx=0;exitDy=0;exitPerimeter=0;" edge="1" parent="1">
          <mxGeometry width="50" height="50" relative="1" as="geometry">
            <mxPoint x="480.1600000000001" y="353.08" as="sourcePoint" />
            <mxPoint x="480.1600000000001" y="70.00000000000003" as="targetPoint" />
          </mxGeometry>
        </mxCell>
        <mxCell id="ftUarqKsqONOGxU_o6YQ-3" value="" style="rounded=1;whiteSpace=wrap;html=1;" vertex="1" parent="1">
          <mxGeometry x="490" y="81.53999999999999" width="100" height="30" as="geometry" />
        </mxCell>
        <mxCell id="ftUarqKsqONOGxU_o6YQ-4" value="About" style="rounded=1;whiteSpace=wrap;html=1;" vertex="1" parent="1">
          <mxGeometry x="490" y="121.53999999999999" width="100" height="30" as="geometry" />
        </mxCell>
        <mxCell id="ftUarqKsqONOGxU_o6YQ-6" value="Log out" style="rounded=1;whiteSpace=wrap;html=1;" vertex="1" parent="1">
          <mxGeometry x="490" y="311.54" width="100" height="30" as="geometry" />
        </mxCell>
        <mxCell id="ftUarqKsqONOGxU_o6YQ-7" value="&lt;font style=&quot;font-size: 10px;&quot;&gt;Hi @TraineeName&lt;/font&gt;" style="text;html=1;align=center;verticalAlign=middle;whiteSpace=wrap;rounded=0;" vertex="1" parent="1">
          <mxGeometry x="500" y="81.53999999999999" width="60" height="30" as="geometry" />
        </mxCell>
        <mxCell id="ftUarqKsqONOGxU_o6YQ-8" value="Progress" style="rounded=1;whiteSpace=wrap;html=1;" vertex="1" parent="1">
          <mxGeometry x="490" y="191.54" width="100" height="110" as="geometry" />
        </mxCell>
        <mxCell id="ftUarqKsqONOGxU_o6YQ-9" value="Live Tests" style="rounded=1;whiteSpace=wrap;html=1;" vertex="1" parent="1">
          <mxGeometry x="60" y="91.53999999999999" width="190" height="100" as="geometry" />
        </mxCell>
        <mxCell id="ftUarqKsqONOGxU_o6YQ-10" value="Practice Questions" style="rounded=1;whiteSpace=wrap;html=1;" vertex="1" parent="1">
          <mxGeometry x="270" y="91.53999999999999" width="180" height="100" as="geometry" />
        </mxCell>
        <mxCell id="ftUarqKsqONOGxU_o6YQ-11" value="Results Table" style="rounded=1;whiteSpace=wrap;html=1;" vertex="1" parent="1">
          <mxGeometry x="150" y="211.54" width="260" height="70" as="geometry" />
        </mxCell>
        <mxCell id="ftUarqKsqONOGxU_o6YQ-13" value="&lt;ul&gt;&lt;li&gt;Copyright&lt;/li&gt;&lt;li&gt;Contact Details(admin)&lt;span style=&quot;white-space: pre;&quot;&gt;&#x9;&lt;/span&gt;&amp;nbsp;&lt;/li&gt;&lt;/ul&gt;" style="rounded=0;whiteSpace=wrap;html=1;" vertex="1" parent="1">
          <mxGeometry x="40" y="301.54" width="440" height="50" as="geometry" />
        </mxCell>
        <mxCell id="ftUarqKsqONOGxU_o6YQ-14" value="Footer" style="text;html=1;align=center;verticalAlign=middle;whiteSpace=wrap;rounded=0;" vertex="1" parent="1">
          <mxGeometry x="100" y="311.54" width="60" height="30" as="geometry" />
        </mxCell>
        <mxCell id="ftUarqKsqONOGxU_o6YQ-15" value="" style="rounded=0;whiteSpace=wrap;html=1;" vertex="1" parent="1">
          <mxGeometry x="40" y="561.54" width="560" height="280" as="geometry" />
        </mxCell>
        <mxCell id="ftUarqKsqONOGxU_o6YQ-16" value="" style="endArrow=none;html=1;rounded=0;entryX=0.786;entryY=0.007;entryDx=0;entryDy=0;entryPerimeter=0;exitX=0.786;exitY=1.018;exitDx=0;exitDy=0;exitPerimeter=0;" edge="1" parent="1">
          <mxGeometry width="50" height="50" relative="1" as="geometry">
            <mxPoint x="480.1600000000001" y="843.0799999999999" as="sourcePoint" />
            <mxPoint x="480.1600000000001" y="560" as="targetPoint" />
          </mxGeometry>
        </mxCell>
        <mxCell id="ftUarqKsqONOGxU_o6YQ-17" value="" style="rounded=1;whiteSpace=wrap;html=1;" vertex="1" parent="1">
          <mxGeometry x="490" y="571.54" width="100" height="30" as="geometry" />
        </mxCell>
        <mxCell id="ftUarqKsqONOGxU_o6YQ-18" value="About" style="rounded=1;whiteSpace=wrap;html=1;" vertex="1" parent="1">
          <mxGeometry x="490" y="616.54" width="100" height="30" as="geometry" />
        </mxCell>
        <mxCell id="ftUarqKsqONOGxU_o6YQ-19" value="Log out" style="rounded=1;whiteSpace=wrap;html=1;" vertex="1" parent="1">
          <mxGeometry x="490" y="686.54" width="100" height="30" as="geometry" />
        </mxCell>
        <mxCell id="ftUarqKsqONOGxU_o6YQ-20" value="&lt;font style=&quot;font-size: 10px;&quot;&gt;Hi @TraineeName&lt;/font&gt;" style="text;html=1;align=center;verticalAlign=middle;whiteSpace=wrap;rounded=0;" vertex="1" parent="1">
          <mxGeometry x="500" y="571.54" width="60" height="30" as="geometry" />
        </mxCell>
        <mxCell id="ftUarqKsqONOGxU_o6YQ-22" value="Add Question" style="rounded=1;whiteSpace=wrap;html=1;" vertex="1" parent="1">
          <mxGeometry x="60" y="581.54" width="180" height="88.46" as="geometry" />
        </mxCell>
        <mxCell id="ftUarqKsqONOGxU_o6YQ-23" value="View Question" style="rounded=1;whiteSpace=wrap;html=1;" vertex="1" parent="1">
          <mxGeometry x="270" y="581.54" width="180" height="88.46" as="geometry" />
        </mxCell>
        <mxCell id="ftUarqKsqONOGxU_o6YQ-24" value="Students Result" style="rounded=1;whiteSpace=wrap;html=1;" vertex="1" parent="1">
          <mxGeometry x="60" y="686.54" width="180" height="83.46" as="geometry" />
        </mxCell>
        <mxCell id="ftUarqKsqONOGxU_o6YQ-25" value="&lt;ul&gt;&lt;li&gt;Copyright&lt;/li&gt;&lt;li&gt;Contact Details(admin)&lt;span style=&quot;white-space: pre;&quot;&gt;&#x9;&lt;/span&gt;&amp;nbsp;&lt;/li&gt;&lt;/ul&gt;" style="rounded=0;whiteSpace=wrap;html=1;" vertex="1" parent="1">
          <mxGeometry x="40" y="791.54" width="440" height="50" as="geometry" />
        </mxCell>
        <mxCell id="ftUarqKsqONOGxU_o6YQ-26" value="Footer" style="text;html=1;align=center;verticalAlign=middle;whiteSpace=wrap;rounded=0;" vertex="1" parent="1">
          <mxGeometry x="100" y="801.54" width="60" height="30" as="geometry" />
        </mxCell>
        <mxCell id="ftUarqKsqONOGxU_o6YQ-27" value="TRAINEE" style="text;html=1;align=center;verticalAlign=middle;whiteSpace=wrap;rounded=0;" vertex="1" parent="1">
          <mxGeometry x="50" y="40" width="60" height="30" as="geometry" />
        </mxCell>
        <mxCell id="ftUarqKsqONOGxU_o6YQ-28" value="Previous Tests" style="rounded=1;whiteSpace=wrap;html=1;" vertex="1" parent="1">
          <mxGeometry x="490" y="651.54" width="100" height="30" as="geometry" />
        </mxCell>
        <mxCell id="ftUarqKsqONOGxU_o6YQ-29" value="Optional Leaderboard" style="rounded=1;whiteSpace=wrap;html=1;" vertex="1" parent="1">
          <mxGeometry x="270" y="686.54" width="180" height="88.46" as="geometry" />
        </mxCell>
        <mxCell id="ftUarqKsqONOGxU_o6YQ-30" value="TRAINER" style="text;html=1;align=center;verticalAlign=middle;whiteSpace=wrap;rounded=0;" vertex="1" parent="1">
          <mxGeometry x="70" y="520" width="60" height="30" as="geometry" />
        </mxCell>
      </root>
    </mxGraphModel>
  </diagram>
</mxfile>
